<?xml version="1.0" standalone="no"?>
<!DOCTYPE svg PUBLIC "-//W3C//DTD SVG 20010904//EN"
 "http://www.w3.org/TR/2001/REC-SVG-20010904/DTD/svg10.dtd">
<svg version="1.0" xmlns="http://www.w3.org/2000/svg"
 width="149.000000pt" height="149.000000pt" viewBox="0 0 149.000000 149.000000"
 preserveAspectRatio="xMidYMid meet">
<metadata>
Created by potrace 1.14, written by Peter Selinger 2001-2017
</metadata>
<g transform="translate(0.000000,149.000000) scale(0.100000,-0.100000)"
fill="#000000" stroke="none">
<path d="M925 1156 c-61 -15 -130 -48 -170 -81 l-30 -25 25 -46 c14 -25 28
-48 32 -50 4 -3 28 11 53 31 127 96 311 81 420 -36 25 -26 50 -60 57 -74 10
-23 16 -25 74 -25 l63 0 -14 40 c-29 84 -122 188 -204 229 -93 48 -207 62
-306 37z"/>
<path d="M461 1067 c-160 -276 -441 -767 -441 -771 0 -3 164 -6 365 -6 201 0
365 3 365 8 0 4 -14 31 -30 59 l-30 53 -234 2 -234 3 146 253 c80 138 149 252
153 252 4 0 89 -142 190 -316 l183 -316 115 4 c158 7 229 35 322 127 75 75
113 147 128 241 6 35 9 65 7 67 -2 2 -127 2 -279 1 l-277 -3 33 -55 33 -55
172 -3 c95 -1 172 -6 172 -10 0 -31 -95 -128 -154 -159 -51 -26 -179 -42 -203
-26 -11 8 -143 232 -365 621 -39 67 -73 122 -77 122 -3 0 -30 -42 -60 -93z"/>
</g>
</svg>
